<svg width="16" height="16" viewBox="0 0 16 16" fill="none" xmlns="http://www.w3.org/2000/svg">
<g clip-path="url(#clip0)">
<path fill-rule="evenodd" clip-rule="evenodd" d="M2.60769 2.2762C2.60769 1.01828 3.62683 0 4.87956 0C5.69539 0 6.40827 0.431708 6.8097 1.07797C6.12624 1.56591 4.87178 2.53401 4.13121 4.42262C3.24357 4.11377 2.60769 3.27025 2.60769 2.2762ZM10.0243 8.01883C10.0242 8.01886 10.0241 8.01889 10.024 8.01893C10.3147 9.54563 11.794 10.7074 13.2845 11.5368C13.9013 11.9876 14.3036 12.7108 14.3001 13.5319C14.3001 14.8945 13.1979 15.9993 11.8371 15.9993C10.6384 15.9993 10.0651 15.4735 9.54252 14.9942C9.10483 14.5928 8.70269 14.224 7.99841 14.224C7.29414 14.224 6.892 14.5928 6.45431 14.9942C5.93172 15.4735 5.35846 15.9993 4.15976 15.9993C2.79889 15.9993 1.69669 14.8953 1.69669 13.5319C1.69669 12.71 2.09899 11.9841 2.71324 11.536L2.71396 11.5354C2.01801 11.1062 1.55469 10.3374 1.55469 9.45878C1.55469 8.11002 2.64737 7.01474 3.99353 7.01561C4.05334 7.01561 4.10978 7.01983 4.16868 7.02493C3.93896 6.6403 3.80365 6.18306 3.80365 5.69158C3.80365 5.22699 3.92304 4.79528 4.13154 4.42414C4.87211 2.53552 6.12657 1.56829 6.81003 1.07948C7.15955 0.887422 7.56098 0.777548 7.98922 0.777548H8.00134H8.01345C8.43903 0.777548 8.84298 0.887384 9.19246 1.07939L9.1907 1.07797C9.59299 0.431708 10.305 0 11.1208 0C12.377 0 13.3936 1.01828 13.3936 2.2762C13.3936 3.2699 12.7573 4.11317 11.8701 4.4223L11.8711 4.42414C12.077 4.79528 12.199 5.22699 12.199 5.69158C12.199 6.18447 12.0639 6.63973 11.8344 7.02419C11.839 7.02384 11.8436 7.02349 11.8482 7.02313C11.8993 7.01919 11.9522 7.01511 12.0051 7.01511C13.3522 7.01511 14.4448 8.11039 14.4448 9.45915C14.4448 10.339 13.9811 11.1055 13.2847 11.5364C11.7943 10.7069 10.3161 9.54535 10.0243 8.01883ZM9.27077 1.14243C9.55416 1.37114 9.8043 1.58002 10.0447 1.81356C9.80425 1.58012 9.55409 1.37124 9.27077 1.14243Z" fill="url(#paint0_linear)"/>
</g>
<defs>
<linearGradient id="paint0_linear" x1="12.6971" y1="25.1664" x2="12.2903" y2="3.87763" gradientUnits="userSpaceOnUse">
<stop stop-color="#9E00FF" stop-opacity="0"/>
<stop offset="0.182292" stop-color="#B741FF"/>
<stop offset="1" stop-color="#8F00FF"/>
</linearGradient>
<clipPath id="clip0">
<rect width="16" height="16" fill="white"/>
</clipPath>
</defs>
</svg>
