<?xml version="1.0" standalone="no"?>
<!DOCTYPE svg PUBLIC "-//W3C//DTD SVG 20010904//EN"
 "http://www.w3.org/TR/2001/REC-SVG-20010904/DTD/svg10.dtd">
<svg version="1.0" xmlns="http://www.w3.org/2000/svg"
 width="700.000000pt" height="700.000000pt" viewBox="0 0 700.000000 700.000000"
 preserveAspectRatio="xMidYMid meet">
<metadata>
Created by potrace 1.11, written by Peter Selinger 2001-2013
</metadata>
<g transform="translate(0.000000,700.000000) scale(0.100000,-0.100000)"
fill="#000000" stroke="none">
<path d="M1957 6985 c-106 -20 -240 -72 -339 -131 -106 -63 -257 -212 -322
-316 -107 -174 -150 -324 -150 -533 0 -155 19 -257 73 -386 94 -224 300 -432
518 -525 35 -15 63 -30 63 -34 0 -4 -16 -41 -35 -83 -133 -289 -130 -660 10
-954 l44 -93 -78 0 c-259 0 -526 -106 -721 -286 -138 -128 -256 -328 -307
-521 -23 -85 -26 -118 -26 -253 -1 -222 42 -384 149 -561 58 -97 192 -242 280
-305 35 -25 64 -49 64 -52 0 -4 -19 -20 -41 -37 -62 -45 -156 -150 -216 -242
-419 -639 -68 -1488 682 -1649 219 -47 522 -15 738 76 147 63 261 144 495 353
226 203 321 263 472 300 214 54 425 17 612 -106 46 -29 148 -112 227 -183 249
-224 358 -302 504 -363 224 -93 521 -124 744 -77 464 98 817 497 852 963 22
307 -63 571 -261 803 -30 36 -81 85 -112 110 -31 25 -56 48 -56 52 0 4 21 22
48 39 68 47 186 163 242 239 231 314 273 729 110 1078 -101 215 -254 379 -461
494 -136 76 -340 128 -501 128 l-78 0 34 68 c151 300 162 658 30 956 -52 119
-54 109 18 139 228 97 438 316 528 550 53 136 64 198 64 362 -1 129 -4 163
-26 245 -97 361 -359 621 -726 722 -110 31 -362 30 -474 0 -112 -30 -214 -76
-304 -134 -90 -59 -225 -190 -269 -261 -17 -26 -34 -45 -40 -42 -65 29 -193
77 -240 89 -264 68 -511 39 -790 -89 -5 -3 -23 16 -40 42 -44 71 -179 202
-269 261 -91 59 -194 105 -304 133 -104 27 -309 34 -415 14z"/>
</g>
</svg>
